<?xml version="1.0" encoding="UTF-8"?>
<svg id="Layer_1" data-name="Layer 1" xmlns="http://www.w3.org/2000/svg" viewBox="0 0 16 16">
  <defs>
    <style>
      .cls-1 {
        fill: #f9f7f2;
      }

      .cls-2 {
        fill: #1f1d1a;
      }
    </style>
  </defs>
  <rect class="cls-1" width="16" height="16"/>
  <path class="cls-2" d="M13.12,3.13c-.56-.12-1.04.25-1.42.62l-1.81,1.22c-.12-.9-.72-1.65-1.56-2-.76-.31-1.01-.3-1.73.07-1.06.54-2.06,1.2-3.09,1.79-.58.33-1.2.6-1.76.99-.18.12-.56.4-.73.54-1.41,1.19-1.26,3.55-.22,4.94,1.37,1.81,3.94,1.81,4.86-.42.04-.1.02-.29.17-.3.01.1.01.2.04.3.44,1.68,2.21,2.88,3.92,2.16.95-.39,1.36-1.1,2.02-1.82,1.24-1.34,2.48-2.65,3.69-4.01.2-.23.49-.31.49-.67,0-1.79-1.17-3.04-2.88-3.41ZM5.09,10.63c-.65,1.63-2.39,1.69-3.54.53-.25-.25-.46-.57-.6-.91.17-.02.29.14.43.18.95.28,2.93.21,3.38-.85.22-.52.01-.93-.39-1.28-.95-.82-2.38-.89-3.48-.31-.03.02-.23.22-.2.07.03-.14.31-.74.4-.87.73-1.03,2.25-.97,3.12-.16.92.86,1.34,2.42.87,3.6ZM2.36,8.31s.02-.08.03-.09c.15-.05.92.17,1.1.26.26.12.7.45.69.76-.01.35-.82.64-1.11.69-.21.03-.84.15-.51-.15.36-.33.3-1.25-.21-1.47ZM5.67,4.94c-.59.37-1.14.82-1.76,1.11l-.81-.25c0-.05.24-.13.3-.17,1.13-.69,2.37-1.42,3.54-2.06.08-.04.34-.19.39-.21.09-.03.47.06.56.12.07.05.04.03.01.08-.08.16-.82.52-1.02.64-.4.25-.81.5-1.21.75ZM10.77,11.41c-.43.7-1.3,1.3-2.14,1.21-1.06-.11-1.91-.92-2.11-1.96.12.05.21.17.32.23,1,.57,3.27.71,3.96-.39.34-.55.15-1.05-.31-1.44-.96-.82-2.37-.88-3.48-.31-.14.07-.22.23-.43.19-.1-.07.31-.79.39-.9,1.15-1.42,3.09-1.19,3.92.42.47.9.41,2.08-.11,2.93ZM8.07,9.03c.16,0,.38-.05.53-.04.32.01.91.18,1.18.35.09.06.43.35.48.43.19.31-.19.59-.44.71-.48.22-1.01.25-1.52.18.02-.15.13-.2.18-.36.12-.45-.03-.99-.41-1.27ZM9.88,6.66l-.9-.14c-.08-.06.23-.3.27-.33.99-.76,2.11-1.46,3.13-2.21.05-.04.41-.28.44-.29.14-.06.71.15.69.2l-3.62,2.77Z"/>
</svg>